<mxfile host="app.diagrams.net" modified="2023-05-09T07:11:58.373Z" agent="Mozilla/5.0 (Windows NT 10.0; Win64; x64) AppleWebKit/537.36 (KHTML, like Gecko) Chrome/113.0.0.0 Safari/537.36" etag="mtHJw4e2X39ct2FJd3j8" version="21.2.4" type="github" pages="2">
  <diagram name="Page-1" id="9uIH1SKXsFeyWn5DoPZV">
    <mxGraphModel dx="1050" dy="541" grid="1" gridSize="10" guides="1" tooltips="1" connect="1" arrows="1" fold="1" page="1" pageScale="1" pageWidth="850" pageHeight="1100" math="0" shadow="0">
      <root>
        <mxCell id="0" />
        <mxCell id="1" parent="0" />
        <mxCell id="Hik7r06IsyhoSPiPFrqZ-5" value="Data Training&lt;br style=&quot;border-color: var(--border-color);&quot;&gt;(legalinfo.mn)" style="rounded=1;whiteSpace=wrap;html=1;" parent="1" vertex="1">
          <mxGeometry x="384" y="45" width="120" height="60" as="geometry" />
        </mxCell>
        <mxCell id="Hik7r06IsyhoSPiPFrqZ-8" style="edgeStyle=orthogonalEdgeStyle;rounded=0;orthogonalLoop=1;jettySize=auto;html=1;exitX=0.25;exitY=0;exitDx=0;exitDy=0;entryX=0.5;entryY=1;entryDx=0;entryDy=0;dashed=1;endArrow=block;endFill=0;" parent="1" source="Hik7r06IsyhoSPiPFrqZ-7" target="Hik7r06IsyhoSPiPFrqZ-40" edge="1">
          <mxGeometry relative="1" as="geometry">
            <mxPoint x="210" y="105" as="targetPoint" />
            <Array as="points">
              <mxPoint x="135" y="145" />
              <mxPoint x="215" y="145" />
            </Array>
          </mxGeometry>
        </mxCell>
        <mxCell id="Hik7r06IsyhoSPiPFrqZ-7" value="Legal term detection algorithm&lt;br&gt;implementation" style="rounded=0;whiteSpace=wrap;html=1;" parent="1" vertex="1">
          <mxGeometry x="105" y="165" width="120" height="60" as="geometry" />
        </mxCell>
        <mxCell id="Hik7r06IsyhoSPiPFrqZ-9" value="using" style="text;html=1;align=center;verticalAlign=middle;resizable=0;points=[];autosize=1;strokeColor=none;fillColor=none;" parent="1" vertex="1">
          <mxGeometry x="151" y="118" width="50" height="30" as="geometry" />
        </mxCell>
        <mxCell id="Hik7r06IsyhoSPiPFrqZ-28" style="edgeStyle=orthogonalEdgeStyle;rounded=0;orthogonalLoop=1;jettySize=auto;html=1;entryX=0.5;entryY=1;entryDx=0;entryDy=0;dashed=1;endArrow=block;endFill=0;" parent="1" source="Hik7r06IsyhoSPiPFrqZ-10" target="Hik7r06IsyhoSPiPFrqZ-7" edge="1">
          <mxGeometry relative="1" as="geometry" />
        </mxCell>
        <mxCell id="Hik7r06IsyhoSPiPFrqZ-30" style="edgeStyle=orthogonalEdgeStyle;rounded=0;orthogonalLoop=1;jettySize=auto;html=1;exitX=0;exitY=0;exitDx=120;exitDy=32.5;exitPerimeter=0;dashed=1;endArrow=block;endFill=0;entryX=0;entryY=0.5;entryDx=0;entryDy=0;entryPerimeter=0;" parent="1" source="Hik7r06IsyhoSPiPFrqZ-10" target="Hik7r06IsyhoSPiPFrqZ-45" edge="1">
          <mxGeometry relative="1" as="geometry">
            <mxPoint x="320" y="303" as="targetPoint" />
          </mxGeometry>
        </mxCell>
        <mxCell id="Hik7r06IsyhoSPiPFrqZ-32" style="edgeStyle=orthogonalEdgeStyle;rounded=0;orthogonalLoop=1;jettySize=auto;html=1;exitX=0;exitY=0;exitDx=120;exitDy=5;exitPerimeter=0;entryX=0;entryY=0.5;entryDx=0;entryDy=0;dashed=1;endArrow=block;endFill=0;" parent="1" source="Hik7r06IsyhoSPiPFrqZ-10" target="Hik7r06IsyhoSPiPFrqZ-27" edge="1">
          <mxGeometry relative="1" as="geometry" />
        </mxCell>
        <mxCell id="Hik7r06IsyhoSPiPFrqZ-38" style="edgeStyle=orthogonalEdgeStyle;rounded=0;orthogonalLoop=1;jettySize=auto;html=1;exitX=0;exitY=0;exitDx=0;exitDy=27.5;exitPerimeter=0;entryX=0;entryY=0.5;entryDx=0;entryDy=0;dashed=1;endArrow=block;endFill=0;" parent="1" source="Hik7r06IsyhoSPiPFrqZ-10" target="Hik7r06IsyhoSPiPFrqZ-40" edge="1">
          <mxGeometry relative="1" as="geometry">
            <mxPoint x="150" y="75" as="targetPoint" />
          </mxGeometry>
        </mxCell>
        <mxCell id="Hik7r06IsyhoSPiPFrqZ-43" style="edgeStyle=orthogonalEdgeStyle;rounded=0;orthogonalLoop=1;jettySize=auto;html=1;exitX=0;exitY=0;exitDx=120;exitDy=5;exitPerimeter=0;entryX=0;entryY=0.5;entryDx=0;entryDy=0;endArrow=block;endFill=0;dashed=1;" parent="1" source="Hik7r06IsyhoSPiPFrqZ-10" target="Hik7r06IsyhoSPiPFrqZ-41" edge="1">
          <mxGeometry relative="1" as="geometry" />
        </mxCell>
        <mxCell id="Hik7r06IsyhoSPiPFrqZ-10" value="DAS website" style="shape=cube;whiteSpace=wrap;html=1;boundedLbl=1;backgroundOutline=1;darkOpacity=0.05;darkOpacity2=0.1;size=5;" parent="1" vertex="1">
          <mxGeometry x="105" y="270" width="120" height="60" as="geometry" />
        </mxCell>
        <mxCell id="Hik7r06IsyhoSPiPFrqZ-34" style="edgeStyle=orthogonalEdgeStyle;rounded=0;orthogonalLoop=1;jettySize=auto;html=1;exitX=0;exitY=0.75;exitDx=0;exitDy=0;entryX=1;entryY=0.5;entryDx=0;entryDy=0;dashed=1;endArrow=block;endFill=0;" parent="1" source="Hik7r06IsyhoSPiPFrqZ-19" target="Hik7r06IsyhoSPiPFrqZ-27" edge="1">
          <mxGeometry relative="1" as="geometry" />
        </mxCell>
        <mxCell id="Hik7r06IsyhoSPiPFrqZ-35" style="edgeStyle=orthogonalEdgeStyle;rounded=0;orthogonalLoop=1;jettySize=auto;html=1;exitX=0.5;exitY=1;exitDx=0;exitDy=0;entryX=1.035;entryY=0.505;entryDx=0;entryDy=0;dashed=1;endArrow=block;endFill=0;entryPerimeter=0;" parent="1" source="Hik7r06IsyhoSPiPFrqZ-19" target="Hik7r06IsyhoSPiPFrqZ-45" edge="1">
          <mxGeometry relative="1" as="geometry">
            <mxPoint x="440" y="303" as="targetPoint" />
          </mxGeometry>
        </mxCell>
        <mxCell id="Hik7r06IsyhoSPiPFrqZ-44" style="edgeStyle=orthogonalEdgeStyle;rounded=0;orthogonalLoop=1;jettySize=auto;html=1;exitX=0;exitY=0.75;exitDx=0;exitDy=0;entryX=1;entryY=0.5;entryDx=0;entryDy=0;dashed=1;endArrow=block;endFill=0;" parent="1" source="Hik7r06IsyhoSPiPFrqZ-19" target="Hik7r06IsyhoSPiPFrqZ-41" edge="1">
          <mxGeometry relative="1" as="geometry" />
        </mxCell>
        <mxCell id="Hik7r06IsyhoSPiPFrqZ-19" value="&lt;br&gt;&lt;br&gt;user" style="shape=actor;whiteSpace=wrap;html=1;" parent="1" vertex="1">
          <mxGeometry x="525" y="218" width="40" height="60" as="geometry" />
        </mxCell>
        <mxCell id="Hik7r06IsyhoSPiPFrqZ-25" value="create" style="html=1;shadow=0;align=center;verticalAlign=middle;shape=mxgraph.arrows2.arrow;dy=0.54;dx=26.8;flipH=1;notch=0;" parent="1" vertex="1">
          <mxGeometry x="270" y="50" width="100" height="50" as="geometry" />
        </mxCell>
        <mxCell id="Hik7r06IsyhoSPiPFrqZ-27" value="HTML file&lt;br&gt;(.html)" style="rounded=0;whiteSpace=wrap;html=1;" parent="1" vertex="1">
          <mxGeometry x="320" y="135" width="120" height="50" as="geometry" />
        </mxCell>
        <mxCell id="Hik7r06IsyhoSPiPFrqZ-29" value="using" style="text;html=1;align=center;verticalAlign=middle;resizable=0;points=[];autosize=1;strokeColor=none;fillColor=none;" parent="1" vertex="1">
          <mxGeometry x="161" y="233" width="50" height="30" as="geometry" />
        </mxCell>
        <mxCell id="Hik7r06IsyhoSPiPFrqZ-31" value="analysis" style="text;html=1;align=center;verticalAlign=middle;resizable=0;points=[];autosize=1;strokeColor=none;fillColor=none;" parent="1" vertex="1">
          <mxGeometry x="236" y="277" width="70" height="30" as="geometry" />
        </mxCell>
        <mxCell id="Hik7r06IsyhoSPiPFrqZ-33" value="create" style="text;html=1;align=center;verticalAlign=middle;resizable=0;points=[];autosize=1;strokeColor=none;fillColor=none;" parent="1" vertex="1">
          <mxGeometry x="220" y="248" width="60" height="30" as="geometry" />
        </mxCell>
        <mxCell id="Hik7r06IsyhoSPiPFrqZ-36" value="upload" style="text;html=1;align=center;verticalAlign=middle;resizable=0;points=[];autosize=1;strokeColor=none;fillColor=none;" parent="1" vertex="1">
          <mxGeometry x="460" y="277" width="60" height="30" as="geometry" />
        </mxCell>
        <mxCell id="Hik7r06IsyhoSPiPFrqZ-37" value="view" style="text;html=1;align=center;verticalAlign=middle;resizable=0;points=[];autosize=1;strokeColor=none;fillColor=none;" parent="1" vertex="1">
          <mxGeometry x="479" y="237" width="50" height="30" as="geometry" />
        </mxCell>
        <mxCell id="Hik7r06IsyhoSPiPFrqZ-39" value="using" style="text;html=1;align=center;verticalAlign=middle;resizable=0;points=[];autosize=1;strokeColor=none;fillColor=none;" parent="1" vertex="1">
          <mxGeometry x="40" y="173" width="50" height="30" as="geometry" />
        </mxCell>
        <mxCell id="Hik7r06IsyhoSPiPFrqZ-40" value="Dictionary&lt;br style=&quot;border-color: var(--border-color);&quot;&gt;(legal terms)" style="shape=datastore;whiteSpace=wrap;html=1;" parent="1" vertex="1">
          <mxGeometry x="170" y="40" width="90" height="70" as="geometry" />
        </mxCell>
        <mxCell id="Hik7r06IsyhoSPiPFrqZ-41" value="Graphics&lt;br&gt;(D3.js)" style="rounded=0;whiteSpace=wrap;html=1;" parent="1" vertex="1">
          <mxGeometry x="320" y="203" width="120" height="50" as="geometry" />
        </mxCell>
        <mxCell id="Hik7r06IsyhoSPiPFrqZ-45" value="Document&lt;br style=&quot;border-color: var(--border-color);&quot;&gt;(.doc/.docx, .pdf, .txt)" style="shape=note;whiteSpace=wrap;html=1;backgroundOutline=1;darkOpacity=0.05;size=15;" parent="1" vertex="1">
          <mxGeometry x="340" y="263" width="80" height="82" as="geometry" />
        </mxCell>
      </root>
    </mxGraphModel>
  </diagram>
  <diagram id="x6C_0RTJqsSmgizSdj1j" name="Page-2">
    <mxGraphModel dx="1050" dy="541" grid="1" gridSize="10" guides="1" tooltips="1" connect="1" arrows="1" fold="1" page="1" pageScale="1" pageWidth="850" pageHeight="1100" math="0" shadow="0">
      <root>
        <mxCell id="0" />
        <mxCell id="1" parent="0" />
        <mxCell id="wG679VFZKm3kb_WfDca5-1" value="&lt;br&gt;&lt;br&gt;User" style="shape=actor;whiteSpace=wrap;html=1;" vertex="1" parent="1">
          <mxGeometry x="225" y="180" width="40" height="60" as="geometry" />
        </mxCell>
        <mxCell id="wG679VFZKm3kb_WfDca5-2" value="" style="shape=singleArrow;whiteSpace=wrap;html=1;arrowWidth=0.5066670735677083;arrowSize=0.224000244140625;rotation=90;" vertex="1" parent="1">
          <mxGeometry x="390" y="110" width="70" height="30" as="geometry" />
        </mxCell>
        <mxCell id="wG679VFZKm3kb_WfDca5-3" value="DAS website" style="shape=cube;whiteSpace=wrap;html=1;boundedLbl=1;backgroundOutline=1;darkOpacity=0.05;darkOpacity2=0.1;size=10;" vertex="1" parent="1">
          <mxGeometry x="365" y="170" width="120" height="80" as="geometry" />
        </mxCell>
        <mxCell id="wG679VFZKm3kb_WfDca5-4" value="Dictionary" style="shape=datastore;whiteSpace=wrap;html=1;" vertex="1" parent="1">
          <mxGeometry x="370" y="14" width="110" height="60" as="geometry" />
        </mxCell>
        <mxCell id="wG679VFZKm3kb_WfDca5-6" value="" style="shape=singleArrow;whiteSpace=wrap;html=1;arrowWidth=0.5066670735677083;arrowSize=0.224000244140625;" vertex="1" parent="1">
          <mxGeometry x="282" y="195" width="70" height="30" as="geometry" />
        </mxCell>
        <mxCell id="wG679VFZKm3kb_WfDca5-7" value="" style="shape=singleArrow;whiteSpace=wrap;html=1;arrowWidth=0.5066670735677083;arrowSize=0.224000244140625;" vertex="1" parent="1">
          <mxGeometry x="498" y="195" width="70" height="30" as="geometry" />
        </mxCell>
        <mxCell id="wG679VFZKm3kb_WfDca5-8" value="" style="rounded=0;whiteSpace=wrap;html=1;" vertex="1" parent="1">
          <mxGeometry x="579" y="115" width="240" height="190" as="geometry" />
        </mxCell>
        <mxCell id="wG679VFZKm3kb_WfDca5-9" value="" style="rounded=0;whiteSpace=wrap;html=1;" vertex="1" parent="1">
          <mxGeometry x="298" y="340" width="255" height="190" as="geometry" />
        </mxCell>
        <mxCell id="wG679VFZKm3kb_WfDca5-10" value="" style="shape=singleArrow;whiteSpace=wrap;html=1;arrowWidth=0.5066670735677083;arrowSize=0.224000244140625;rotation=90;" vertex="1" parent="1">
          <mxGeometry x="390" y="280" width="70" height="30" as="geometry" />
        </mxCell>
        <mxCell id="wG679VFZKm3kb_WfDca5-11" value="&lt;font style=&quot;font-size: 8px;&quot;&gt;button&lt;/font&gt;" style="rounded=1;whiteSpace=wrap;html=1;align=center;" vertex="1" parent="1">
          <mxGeometry x="591" y="120" width="30" height="10" as="geometry" />
        </mxCell>
        <mxCell id="wG679VFZKm3kb_WfDca5-12" value="&lt;p style=&quot;line-height: 50%;&quot;&gt;&lt;/p&gt;&lt;div style=&quot;text-align: justify;&quot;&gt;&lt;span style=&quot;font-size: 8px; background-color: initial;&quot;&gt;&lt;b&gt;Lorem Ipsum &lt;/b&gt;has been the industry&#39;s standard dummy text ever since the 1500s, when an unknown printer took a galley of type and scrambled it to make a type &lt;b&gt;specimen book.&lt;/b&gt; It has survived not only five centuries, but also the leap into electronic typesetting, remaining essentially unchanged.&amp;nbsp;&lt;/span&gt;&lt;/div&gt;&lt;p&gt;&lt;/p&gt;" style="rounded=0;whiteSpace=wrap;html=1;" vertex="1" parent="1">
          <mxGeometry x="591" y="150" width="140" height="140" as="geometry" />
        </mxCell>
        <mxCell id="wG679VFZKm3kb_WfDca5-13" value="&lt;font style=&quot;font-size: 8px;&quot;&gt;Galley&lt;br&gt;&lt;div style=&quot;&quot;&gt;&lt;span style=&quot;background-color: initial;&quot;&gt;Scrambled S&lt;/span&gt;&lt;span style=&quot;background-color: initial; border-color: var(--border-color);&quot;&gt;pecimen book&lt;/span&gt;&lt;br&gt;&lt;/div&gt;&lt;div style=&quot;&quot;&gt;&lt;span style=&quot;background-color: initial; border-color: var(--border-color);&quot;&gt;Lorem Ipsum&amp;nbsp;&lt;br style=&quot;border-color: var(--border-color);&quot;&gt;Unknown printer Galley&lt;br style=&quot;border-color: var(--border-color);&quot;&gt;&lt;div style=&quot;border-color: var(--border-color);&quot;&gt;&lt;span style=&quot;border-color: var(--border-color); background-color: initial;&quot;&gt;Scrambled S&lt;/span&gt;&lt;span style=&quot;border-color: var(--border-color); background-color: initial;&quot;&gt;pecimen book&lt;/span&gt;&lt;/div&gt;&lt;div style=&quot;border-color: var(--border-color);&quot;&gt;&lt;span style=&quot;border-color: var(--border-color); background-color: initial;&quot;&gt;Lorem Ipsum&amp;nbsp;&lt;br style=&quot;border-color: var(--border-color);&quot;&gt;Unknown printer Galley&lt;br style=&quot;border-color: var(--border-color);&quot;&gt;&lt;div style=&quot;border-color: var(--border-color);&quot;&gt;Scrambled S&lt;span style=&quot;border-color: var(--border-color); background-color: initial;&quot;&gt;pecimen book&lt;/span&gt;&lt;/div&gt;&lt;/span&gt;&lt;/div&gt;&lt;/span&gt;&lt;/div&gt;&lt;/font&gt;" style="rounded=0;whiteSpace=wrap;html=1;align=left;" vertex="1" parent="1">
          <mxGeometry x="740" y="150" width="70" height="140" as="geometry" />
        </mxCell>
        <mxCell id="wG679VFZKm3kb_WfDca5-14" value="&lt;font style=&quot;font-size: 8px;&quot;&gt;Lorem ipsum&lt;/font&gt;" style="rounded=0;whiteSpace=wrap;html=1;align=left;" vertex="1" parent="1">
          <mxGeometry x="740" y="150" width="70" height="10" as="geometry" />
        </mxCell>
        <mxCell id="wG679VFZKm3kb_WfDca5-15" value="&lt;font style=&quot;font-size: 8px;&quot;&gt;&lt;strong style=&quot;margin: 0px; padding: 0px; font-family: &amp;quot;Open Sans&amp;quot;, Arial, sans-serif; text-align: justify; background-color: rgb(255, 255, 255);&quot;&gt;Lorem Ipsum&lt;/strong&gt;&amp;nbsp;is simply dummy text&lt;/font&gt;" style="text;html=1;align=center;verticalAlign=middle;resizable=0;points=[];autosize=1;strokeColor=none;fillColor=none;" vertex="1" parent="1">
          <mxGeometry x="581" y="122" width="150" height="30" as="geometry" />
        </mxCell>
      </root>
    </mxGraphModel>
  </diagram>
</mxfile>
